<?xml version="1.0" standalone="no"?><!DOCTYPE svg PUBLIC "-//W3C//DTD SVG 1.1//EN" "http://www.w3.org/Graphics/SVG/1.1/DTD/svg11.dtd"><svg t="1563450101511" class="icon" viewBox="0 0 1025 1024" version="1.1" xmlns="http://www.w3.org/2000/svg" p-id="1381" xmlns:xlink="http://www.w3.org/1999/xlink" width="200.1953125" height="200"><defs><style type="text/css"></style></defs><path d="M916.885 572.476h-807.72c-22.038 0-45.1-23.063-45.1-45.1 0-22.039 23.062-45.102 45.1-45.102h808.232c22.038 0 45.101 23.063 45.101 45.101-0.512 22.038-23.063 45.101-45.613 45.101z m0-314.682h-807.72c-22.038 0-45.1-23.063-45.1-45.101s23.062-45.101 45.1-45.101h808.232c22.038 0 45.101 23.063 45.101 45.1s-23.063 45.102-45.613 45.102z m-807.72 539.163h808.232c22.038 0 45.101 23.063 45.101 45.101s-23.063 45.101-45.1 45.101H109.164c-22.038 0-45.1-23.063-45.1-45.1 0-22.039 22.55-45.102 45.1-45.102z" p-id="1382" fill="#8a8a8a"></path></svg>